<?xml version="1.0" encoding="UTF-8"?>
<!DOCTYPE svg PUBLIC "-//W3C//DTD SVG 1.1//EN" "http://www.w3.org/Graphics/SVG/1.1/DTD/svg11.dtd">
<svg xmlns="http://www.w3.org/2000/svg" version="1.1" width="988px" height="388px" style="shape-rendering:geometricPrecision; text-rendering:geometricPrecision; image-rendering:optimizeQuality; fill-rule:evenodd; clip-rule:evenodd" xmlns:xlink="http://www.w3.org/1999/xlink">
<g><path style="opacity:1" fill="#d2a131" d="M 112.5,348.5 C 112.938,349.506 113.604,349.506 114.5,348.5C 122.183,348.523 129.85,348.857 137.5,349.5C 142.833,349.5 148.167,349.5 153.5,349.5C 159.5,349.5 165.5,349.5 171.5,349.5C 186.167,349.5 200.833,349.5 215.5,349.5C 242.141,350.465 268.808,350.798 295.5,350.5C 315.156,351.292 334.823,351.626 354.5,351.5C 355.153,352.807 355.82,354.14 356.5,355.5C 239.832,357.108 123.165,358.442 6.5,359.5C 6.35055,358.448 6.51722,357.448 7,356.5C 76.5,244.167 146,131.833 215.5,19.5C 237.654,54.4633 259.321,89.7967 280.5,125.5C 274.525,130.47 268.525,135.47 262.5,140.5C 247,114.833 231.5,89.1667 216,63.5C 158.959,158.416 101.792,253.25 44.5,348C 67.1642,348.5 89.8309,348.667 112.5,348.5 Z"/></g>
<g><path style="opacity:1" fill="#d2a131" d="M 374.5,50.5 C 376.167,50.5 377.833,50.5 379.5,50.5C 379.365,54.4383 377.865,57.7717 375,60.5C 368.265,67.9053 360.932,74.572 353,80.5C 352.927,83.1576 353.26,85.8243 354,88.5C 357.286,84.4172 360.119,84.5839 362.5,89C 360.635,91.7698 357.968,93.2698 354.5,93.5C 355.669,102.85 357.002,112.183 358.5,121.5C 357.929,123.741 356.596,125.408 354.5,126.5C 350.851,118.058 347.685,109.392 345,100.5C 343.016,97.5167 340.683,94.85 338,92.5C 330.351,98.1613 322.684,103.828 315,109.5C 314.757,114.562 315.257,119.562 316.5,124.5C 315.855,125.646 315.022,126.646 314,127.5C 311.5,123.167 309,118.833 306.5,114.5C 303.766,116.371 300.766,117.371 297.5,117.5C 297.622,113.853 299.288,111.019 302.5,109C 299.833,107 297.167,105 294.5,103C 292.671,101.887 291.837,100.387 292,98.5C 292.561,97.9781 293.228,97.6448 294,97.5C 298.759,98.9748 303.426,100.641 308,102.5C 315.014,95.3187 322.181,88.3187 329.5,81.5C 327.31,79.1443 325.31,76.6443 323.5,74C 315.338,69.7533 307.338,65.2533 299.5,60.5C 300.875,57.2709 303.208,56.1042 306.5,57C 314.72,59.6938 322.886,62.5272 331,65.5C 333.052,62.794 335.719,60.794 339,59.5C 343.792,62.3061 343.625,64.9728 338.5,67.5C 340.179,68.782 342.013,69.782 344,70.5C 349.121,67.0473 353.954,63.2139 358.5,59C 363.768,55.8683 369.101,53.0349 374.5,50.5 Z"/></g>
<g><path style="opacity:1" fill="#d2a131" d="M 292.5,161.5 C 277.695,174.723 262.028,186.723 245.5,197.5C 238.409,201.379 231.076,204.712 223.5,207.5C 202.994,215.284 185.661,210.95 171.5,194.5C 168.527,188.761 166.027,182.761 164,176.5C 162.876,173.558 162.542,170.558 163,167.5C 171.736,186.557 186.569,195.057 207.5,193C 226.561,189.535 244.227,182.535 260.5,172C 290.314,152.868 317.814,130.702 343,105.5C 342.956,107.279 342.289,108.945 341,110.5C 325.36,127.974 309.193,144.974 292.5,161.5 Z"/></g>
<g><path style="opacity:1" fill="#2a317d" d="M 294.5,127.5 C 295.043,127.56 295.376,127.893 295.5,128.5C 274.705,150.125 250.705,167.292 223.5,180C 212.598,184.873 201.931,184.54 191.5,179C 183.997,172.5 180.497,164.333 181,154.5C 184.76,166.878 193.094,172.878 206,172.5C 212.683,172.363 219.183,171.197 225.5,169C 250.822,158.688 273.822,144.854 294.5,127.5 Z"/></g>
<g><path style="opacity:1" fill="#2a317d" d="M 292.5,161.5 C 306.039,170.207 316.206,181.874 323,196.5C 328.771,214.442 327.438,231.775 319,248.5C 314.152,255.344 309.319,262.177 304.5,269C 321.046,296.595 337.712,324.095 354.5,351.5C 334.823,351.626 315.156,351.292 295.5,350.5C 286.269,336.387 277.769,321.721 270,306.5C 266.724,312.108 263.057,317.442 259,322.5C 253.57,309.968 248.403,297.302 243.5,284.5C 239.866,297.368 236.7,310.368 234,323.5C 233.333,324.833 232.667,324.833 232,323.5C 229.081,318.66 225.914,313.994 222.5,309.5C 219.977,322.835 217.644,336.168 215.5,349.5C 200.833,349.5 186.167,349.5 171.5,349.5C 171.5,297.833 171.5,246.167 171.5,194.5C 185.661,210.95 202.994,215.284 223.5,207.5C 223.5,217.5 223.5,227.5 223.5,237.5C 234.172,237.667 244.839,237.5 255.5,237C 266.165,234.834 272.165,228.334 273.5,217.5C 270.106,202.8 260.773,196.133 245.5,197.5C 262.028,186.723 277.695,174.723 292.5,161.5 Z M 245.5,197.5 C 260.773,196.133 270.106,202.8 273.5,217.5C 272.165,228.334 266.165,234.834 255.5,237C 244.839,237.5 234.172,237.667 223.5,237.5C 223.5,227.5 223.5,217.5 223.5,207.5C 231.076,204.712 238.409,201.379 245.5,197.5 Z"/></g>
<g><path style="opacity:1" fill="#2a317d" d="M 696.5,171.5 C 745.604,170.156 779.104,192.156 797,237.5C 808.911,285.812 794.077,323.312 752.5,350C 714.986,367.898 679.319,364.898 645.5,341C 614.32,313.783 603.82,279.949 614,239.5C 628.037,200.41 655.537,177.744 696.5,171.5 Z M 697.5,218.5 C 725.026,216.845 742.859,229.178 751,255.5C 754.694,275.085 749.194,291.585 734.5,305C 708.538,321.541 686.038,317.708 667,293.5C 653.678,267.308 658.178,244.808 680.5,226C 686.001,222.911 691.668,220.411 697.5,218.5 Z"/></g>
<g><path style="opacity:1" fill="#2a317d" d="M 372.5,176.5 C 388.833,176.5 405.167,176.5 421.5,176.5C 421.5,236.5 421.5,296.5 421.5,356.5C 405.167,356.5 388.833,356.5 372.5,356.5C 372.5,296.5 372.5,236.5 372.5,176.5 Z"/></g>
<g><path style="opacity:1" fill="#2a317d" d="M 436.5,176.5 C 452.847,176.167 469.18,176.501 485.5,177.5C 505.864,208.699 526.03,240.032 546,271.5C 546.5,239.835 546.667,208.168 546.5,176.5C 562.5,176.5 578.5,176.5 594.5,176.5C 594.5,236.167 594.5,295.833 594.5,355.5C 578.163,355.667 561.83,355.5 545.5,355C 525.667,324.5 505.833,294 486,263.5C 485.5,294.165 485.333,324.832 485.5,355.5C 469.167,355.5 452.833,355.5 436.5,355.5C 436.5,295.833 436.5,236.167 436.5,176.5 Z"/></g>
<g><path style="opacity:1" fill="#2a317d" d="M 816.5,176.5 C 848.502,176.333 880.502,176.5 912.5,177C 933.276,182.142 948.442,194.309 958,213.5C 968.205,241.003 962.039,264.003 939.5,282.5C 952.333,304.833 965.167,327.167 978,349.5C 979.411,351.65 980.245,353.984 980.5,356.5C 962.497,356.667 944.497,356.5 926.5,356C 916.293,337.752 905.96,319.585 895.5,301.5C 885.856,300.502 876.19,300.168 866.5,300.5C 866.5,319.167 866.5,337.833 866.5,356.5C 849.833,356.5 833.167,356.5 816.5,356.5C 816.5,296.5 816.5,236.5 816.5,176.5 Z M 864.5,217.5 C 875.505,217.333 886.505,217.5 897.5,218C 910.519,223.4 914.352,232.566 909,245.5C 906.011,249.491 902.178,252.324 897.5,254C 886.505,254.5 875.505,254.667 864.5,254.5C 864.5,242.167 864.5,229.833 864.5,217.5 Z"/></g>
<g><path style="opacity:1" fill="#2a317d" d="M 153.5,349.5 C 148.167,349.5 142.833,349.5 137.5,349.5C 137.112,344.754 137.112,340.088 137.5,335.5C 135.995,329.541 133.995,323.874 131.5,318.5C 125.141,328.601 119.474,338.601 114.5,348.5C 113.604,349.506 112.938,349.506 112.5,348.5C 115.567,341.032 119.234,333.699 123.5,326.5C 114.729,325.079 109.729,328.912 108.5,338C 112.749,341.877 112.416,345.044 107.5,347.5C 104.889,347.444 102.722,346.444 101,344.5C 99.1667,341.333 97.3333,338.167 95.5,335C 101.859,328.425 107.359,321.259 112,313.5C 114.255,307.958 116.089,302.291 117.5,296.5C 112.911,296.21 108.745,294.877 105,292.5C 104.375,285.12 103.542,277.786 102.5,270.5C 105.809,265.549 108.309,260.216 110,254.5C 112.756,251.982 114.756,248.982 116,245.5C 121.102,239.882 126.935,239.048 133.5,243C 134.451,246.057 134.784,249.223 134.5,252.5C 138.158,252.676 139.158,251.176 137.5,248C 139.478,246.022 141.478,244.022 143.5,242C 146.207,241.672 148.874,242.005 151.5,243C 156.517,251.975 154.184,258.309 144.5,262C 145.309,267.417 145.809,272.917 146,278.5C 147.994,279.664 150.161,280.331 152.5,280.5C 156.105,279.348 159.772,278.348 163.5,277.5C 166.253,279.043 167.087,281.376 166,284.5C 163.484,287.534 161.484,290.868 160,294.5C 156.035,309.394 151.869,324.227 147.5,339C 148.383,341.906 150.383,343.073 153.5,342.5C 153.5,344.833 153.5,347.167 153.5,349.5 Z M 149.5,288.5 C 152.518,288.335 155.518,288.502 158.5,289C 154.143,304.411 149.976,319.911 146,335.5C 147.43,323.145 145.93,311.145 141.5,299.5C 143.454,295.236 146.12,291.57 149.5,288.5 Z M 137.5,349.5 C 129.85,348.857 122.183,348.523 114.5,348.5C 119.474,338.601 125.141,328.601 131.5,318.5C 133.995,323.874 135.995,329.541 137.5,335.5C 137.112,340.088 137.112,344.754 137.5,349.5 Z"/></g>
</svg>
